<svg data-v-6805eed4="" version="1.0" xmlns="http://www.w3.org/2000/svg" xmlns:xlink="http://www.w3.org/1999/xlink" width="100%" height="100%" viewBox="0 0 340.000000 250.000000" preserveAspectRatio="xMidYMid meet" color-interpolation-filters="sRGB" style="margin: auto;"> <rect data-v-6805eed4="" x="0" y="0" width="100%" height="100%" fill="#fff" fill-opacity="1" class="background"></rect> <rect data-v-6805eed4="" x="0" y="0" width="100%" height="100%" fill="url(#watermark)" fill-opacity="1" class="watermarklayer"></rect> <g data-v-6805eed4="" fill="#333" class="icon-text-wrapper icon-svg-group iconsvg" transform="translate(140,98.79683876037598)"><g class="iconsvg-imagesvg" transform="translate(0,0)"><g><rect fill="#333" fill-opacity="0" stroke-width="2" x="0" y="0" width="60" height="52.4063236963927" class="image-rect"></rect> <svg x="0" y="0" width="60" height="52.4063236963927" filtersec="colorsb1266102912" class="image-svg-svg primary" style="overflow: visible;"><svg xmlns="http://www.w3.org/2000/svg" viewBox="0.00812299083918333 -0.021696830168366432 158.10189819335938 138.0917205810547"><path d="M60.33 0c4.39 0 8.78.09 13.16 0a5.73 5.73 0 0 1 5.65 3.2q15.19 26.51 30.49 52.92 2.78 4.8 5.57 9.58a6 6 0 0 1 0 6.58c-4.54 7.78-9 15.61-13.54 23.41-1.6 2.76-2.61 2.74-4.22 0Q71.56 50.78 45.69 5.91C42.3 0 42.31 0 49.23 0zM97.71 137.88c-4.48 0-8.95-.09-13.42 0a5.57 5.57 0 0 1-5.45-3.08q-16.05-27.74-32.17-55.45c-1.42-2.45-2.79-4.92-4.28-7.34a5.37 5.37 0 0 1-.07-6c4.62-7.93 9.14-15.93 13.74-23.88 1.49-2.58 2.49-2.51 4.08.25q19.52 33.78 39 67.57 7 12.15 14 24.32c1.93 3.36 1.66 3.79-2.31 3.8H97.71zM54.23 104.57a21.29 21.29 0 0 1-1.23 3.32Q46.14 120 39.16 132c-1.37 2.36-2.44 2.35-3.81 0Q18.22 102.31 1.1 72.62a6.58 6.58 0 0 1 0-7.26c4.53-7.7 9-15.46 13.46-23.17 1.56-2.67 2.5-2.62 4.07.09q17 29.19 33.87 58.4a39.85 39.85 0 0 1 1.73 3.89zM158.11 68.91a37.28 37.28 0 0 1-1.64 3.79q-6.56 11.53-13.23 23c-1.59 2.74-2.59 2.74-4.23-.1q-16.36-28.34-32.68-56.67c-.42-.75-.83-1.51-1.31-2.22a6.24 6.24 0 0 1-.1-7.22c4.53-7.79 9-15.62 13.53-23.41 1.45-2.49 2.45-2.46 3.94.11q17.13 29.65 34.23 59.34a34.57 34.57 0 0 1 1.49 3.38z" fill="#303e8f"></path><path d="M137.41 105a26.23 26.23 0 0 1-1.21 2.85q-6.93 12-13.92 24.05c-1.49 2.56-2.35 2.54-3.88-.09-4.62-7.93-9.17-15.9-13.81-23.81a5.44 5.44 0 0 1 0-6c4.54-7.78 9-15.6 13.51-23.39 1.84-3.16 2.68-3.18 4.47-.1q6.91 11.91 13.76 23.85a22.82 22.82 0 0 1 1.08 2.64zM54.13 33.08a21 21 0 0 1-1.17 3q-6.78 11.84-13.63 23.64c-1.48 2.55-2.55 2.58-4 .11-4.6-7.95-9.16-15.93-13.77-23.83a5.46 5.46 0 0 1 0-5.84Q28.43 18 35.39 6c1.3-2.25 2.43-2.3 3.72-.08q7.13 12.24 14.13 24.56a15.5 15.5 0 0 1 .89 2.6zM58.23 138H45.84c-2.57 0-3.06-.78-1.84-2.91q6.12-10.74 12.35-21.41c1.32-2.26 2.34-2.24 3.65 0q6.18 10.55 12.3 21.15c1.4 2.45 1 3.15-1.94 3.18H58.23zM99.68.05h12.11c2.68 0 3.1.77 1.76 3.12q-6 10.49-12.14 20.92c-1.33 2.28-2.26 2.31-3.6 0Q91.57 13.48 85.47 2.73C84.37.8 84.78.11 87.05.07 91.26 0 95.47.05 99.68.05z" fill="#2a78b4"></path></svg></svg> <!----></g></g> <g transform="translate(79,16.203161239624023)"><g data-gra="path-name" fill-rule="" class="tp-name iconsvg-namesvg"><g transform="scale(1)"><g><path d="" transform="translate(0, 0)"></path></g> <!----> <!----> <!----> <!----> <!----> <!----> <!----></g></g> <!----></g></g><defs v-gra="od"></defs></svg>